<?xml version="1.0" standalone="no"?>
<!DOCTYPE svg PUBLIC "-//W3C//DTD SVG 20010904//EN"
 "http://www.w3.org/TR/2001/REC-SVG-20010904/DTD/svg10.dtd">
<svg version="1.0" xmlns="http://www.w3.org/2000/svg"
 width="1280.000000pt" height="916.000000pt" viewBox="0 0 1280.000000 916.000000"
 preserveAspectRatio="xMidYMid meet">
<g transform="translate(0.000000,916.000000) scale(0.100000,-0.100000)"
fill="#dbd9e2" stroke="none">
<path d="M6335 9140 c-171 -21 -242 -34 -365 -67 -186 -49 -397 -139 -578
-248 -227 -135 -493 -380 -661 -605 -51 -69 -97 -126 -101 -128 -5 -2 -51 13
-102 34 -418 168 -834 195 -1279 84 -517 -128 -982 -460 -1280 -912 -259 -393
-384 -874 -348 -1338 7 -85 13 -174 13 -198 l1 -44 -105 -47 c-313 -140 -584
-393 -752 -701 -125 -228 -201 -563 -184 -810 5 -79 34 -234 61 -326 6 -18 -8
-32 -77 -86 -172 -135 -333 -328 -425 -512 -47 -93 -107 -281 -122 -381 -7
-44 -17 -99 -22 -122 -20 -93 0 -289 52 -486 126 -483 507 -870 994 -1012 196
-57 140 -55 1801 -55 1213 0 1534 -3 1542 -12 5 -7 13 -29 17 -48 24 -113 109
-318 180 -430 84 -134 221 -284 345 -379 202 -154 404 -240 676 -286 l144 -25
2853 3 c3097 3 2887 0 3104 56 428 111 795 433 963 845 47 116 72 207 99 374
23 136 26 215 11 289 -5 26 -16 89 -25 138 -55 330 -259 657 -545 875 -68 52
-81 66 -75 84 27 93 56 248 61 331 14 219 -39 493 -139 717 -23 51 -24 63 -16
125 23 185 4 504 -42 699 -105 441 -368 859 -728 1154 l-91 74 0 82 c0 447
-165 919 -453 1297 -333 438 -857 743 -1407 821 -251 35 -422 29 -609 -21 -53
-14 -106 -28 -117 -30 -18 -4 -32 12 -87 104 -238 394 -568 699 -972 899 -255
125 -475 188 -795 225 -194 22 -230 22 -415 -1z m380 -270 c346 -33 653 -140
933 -327 311 -208 534 -464 724 -829 63 -121 72 -134 91 -128 149 48 419 117
480 122 164 17 414 -13 619 -72 430 -125 835 -438 1081 -836 142 -231 240
-528 268 -819 12 -120 9 -169 -17 -311 -4 -22 8 -34 98 -100 125 -91 305 -264
399 -381 217 -273 351 -591 389 -929 6 -51 7 -97 3 -101 -4 -4 -48 28 -98 72
-217 194 -465 320 -749 381 -85 18 -134 22 -301 23 -226 0 -290 -10 -479 -75
-61 -21 -114 -36 -119 -33 -4 2 -30 49 -57 104 -297 591 -862 920 -1508 877
-307 -20 -597 -132 -843 -324 -30 -24 -60 -44 -66 -44 -5 0 -32 28 -59 62
-229 292 -566 499 -944 579 -86 19 -138 23 -290 23 -211 1 -278 -10 -474 -75
-66 -22 -123 -36 -127 -32 -4 5 -30 53 -58 108 -240 481 -686 800 -1205 865
-133 17 -382 8 -504 -19 -206 -45 -409 -134 -579 -254 -114 -81 -281 -248
-365 -367 -37 -52 -96 -150 -130 -217 -34 -68 -65 -123 -69 -123 -4 0 -49 15
-101 34 -164 59 -281 80 -463 80 -88 1 -186 -2 -218 -7 -56 -7 -58 -7 -69 20
-8 19 -12 110 -12 278 -1 223 1 262 22 365 148 730 681 1298 1392 1484 133 35
203 46 348 55 307 20 597 -40 902 -186 63 -30 129 -61 146 -69 l32 -13 75 122
c139 226 266 377 457 545 388 341 935 519 1445 472z"/>
</g>
</svg>
